<?xml version="1.0" encoding="utf-8"?>
<!-- Generator: Adobe Illustrator 21.1.0, SVG Export Plug-In . SVG Version: 6.00 Build 0)  -->
<svg version="1.1" id="Ebene_1" xmlns="http://www.w3.org/2000/svg" xmlns:xlink="http://www.w3.org/1999/xlink" x="0px" y="0px"
	 viewBox="0 0 841.9 595.3" style="enable-background:new 0 0 841.9 595.3;" xml:space="preserve">
<style type="text/css">
	.st0{fill:#253887;stroke:#253887;stroke-width:0.15;stroke-miterlimit:10;}
	.st1{stroke:#010202;stroke-width:0.15;stroke-miterlimit:10;}
	.st2{fill:none;stroke:#010202;stroke-width:0.15;stroke-linecap:round;stroke-linejoin:round;stroke-miterlimit:10;}
	.st3{stroke:#010202;stroke-width:0.15;stroke-linecap:round;stroke-linejoin:round;stroke-miterlimit:10;}
</style>
<g>
	<path class="st0" d="M792.9-13.9"/>
	<path class="st0" d="M792.9-13.9"/>
</g>
<g>
	<path d="M230.4,319.5l-7.5,15.5H212l30.8-62h12.4l28.6,62h-10.8l-6.9-15.5H230.4z M248.9,281.3l-14.4,29.9h27.8L248.9,281.3z"/>
	<path d="M302.9,273v62h-10.4v-62H302.9z"/>
	<path d="M353.6,319.5l-7.5,15.5h-10.9l30.8-62h12.4l28.6,62h-10.8l-6.9-15.5H353.6z M372.1,281.3l-14.4,29.9h27.8L372.1,281.3z"/>
	<path d="M470.1,322.7c-2.3,4.2-5.7,7.4-10.2,9.8c-4.5,2.3-10.2,3.5-16.9,3.5c-6.6,0-12.3-1.1-16.9-3.3s-8.1-5.4-10.4-9.6
		s-3.5-9.2-3.5-15V273h11v35.6c0,5.8,1.7,10.3,5.2,13.4c3.5,3.1,8.3,4.7,14.6,4.7c6.2,0,11-1.6,14.4-4.8s5-7.7,5-13.6V273h11v34.7
		C473.5,313.5,472.3,318.5,470.1,322.7z"/>
	<path d="M482.4,328.7l4.2-10c2.6,2.4,6,4.3,10.2,5.9c4.2,1.6,9.2,2.4,14.9,2.4c5.6,0,10-0.9,13.2-2.6s4.8-4.4,4.8-8.1
		c0-2.2-0.6-3.8-1.9-5c-1.3-1.1-3.1-1.9-5.4-2.4c-2.3-0.5-5.8-1-10.7-1.6c-0.5-0.1-1.6-0.2-3.1-0.4c-5.4-0.7-9.7-1.4-13-2.4
		c-3.2-0.9-5.8-2.4-7.8-4.5c-2-2.1-3-5-3-8.7c0-3.9,1-7.3,3.1-10.2c2.1-2.9,5.1-5.2,9.2-6.8s9.1-2.4,15.1-2.4c4.5,0,8.8,0.4,13,1.3
		s8,2.1,11.4,3.7l-3.6,9.1c-2.5-1.6-5.7-2.9-9.5-3.7s-7.8-1.3-11.7-1.3c-5.9,0-10.2,0.8-12.9,2.5c-2.8,1.7-4.1,4.1-4.1,7.4
		c0,1.7,0.6,3.1,1.8,4s2.8,1.6,5,2s5.4,0.9,10,1.4c0.7,0.1,1.5,0.2,2.1,0.3s1.3,0.2,1.9,0.2c5.2,0.6,9.4,1.4,12.7,2.3
		c3.2,0.9,5.9,2.5,8.1,4.8c2.2,2.3,3.2,5.5,3.2,9.7c0,4.6-1.2,8.4-3.6,11.4c-2.4,3-5.6,5.3-9.7,6.7c-4.1,1.4-8.8,2.2-14,2.2
		c-5.9,0-11.4-0.7-16.6-2C490.4,332.6,486,330.9,482.4,328.7z"/>
	<path d="M580,281.9V335h-10.5v-53.1H544V273h61.4v8.9H580z"/>
	<path d="M625.6,312.7V335h-10.2v-62h34c4.9,0,9.1,0.8,12.7,2.3c3.5,1.6,6.2,3.8,8.1,6.7c1.9,2.9,2.8,6.3,2.8,10.2v0.8
		c0,3.3-0.7,6.3-2.1,9s-3.3,4.9-5.9,6.6s-5.6,2.9-9.2,3.6l19.3,22.8h-11.8l-18.2-22.3H625.6z M649.4,304c4.4,0,7.8-1,10-2.9
		s3.4-4.6,3.4-8.2v-0.6c0-3.5-1.2-6.2-3.5-7.9c-2.3-1.7-5.6-2.6-9.8-2.6h-23.8V304H649.4z"/>
	<path d="M696.8,273v62h-10.4v-62H696.8z"/>
	<path d="M724.3,319.5l-7.5,15.5h-10.9l30.8-62h12.4l28.6,62h-10.8l-6.9-15.5H724.3z M742.8,281.3l-14.4,29.9h27.8L742.8,281.3z"/>
</g>
<g>
	<line class="st1" x1="183.2" y1="283.1" x2="195.2" y2="302.9"/>
	<path class="st1" d="M193.5,304.2c-0.7-1-0.5-2.3,0.4-3l0,0c1-0.7,2.3-0.5,3,0.4l0,0c0.7,1,0.5,2.3-0.4,3l0,0
		C195.5,305.3,194.2,305.1,193.5,304.2L193.5,304.2z"/>
	<g>
		<g>
			<g>
				<polygon class="st2" points="151.8,355.8 137.9,351.8 130.5,357.3 				"/>
				<polygon class="st2" points="139,329.5 159.8,332.6 144.2,341.2 				"/>
				<path class="st3" d="M159.7,264.8"/>
				<polygon class="st2" points="144.2,341.2 137.9,351.8 139,329.5 				"/>
				<path class="st3" d="M122.7,356.7"/>
				<polygon class="st2" points="151.8,355.8 144.2,341.2 137.9,351.8 				"/>
				<line class="st3" x1="147.2" y1="323.9" x2="162" y2="318.9"/>
				<line class="st3" x1="162.3" y1="319.1" x2="159.8" y2="332.6"/>
				<g>
					
						<ellipse transform="matrix(0.7563 -0.6542 0.6542 0.7563 -195.8237 185.8825)" class="st1" cx="151.6" cy="355.8" rx="1.2" ry="1.2"/>
				</g>
				<g>
					
						<ellipse transform="matrix(0.7563 -0.6542 0.6542 0.7563 -196.5274 175.946)" class="st1" cx="137.9" cy="351.8" rx="1.1" ry="1.1"/>
				</g>
				<g>
					
						<ellipse transform="matrix(0.7563 -0.6542 0.6542 0.7563 -188.056 177.4901)" class="st1" cx="144.2" cy="341.2" rx="1.4" ry="1.4"/>
				</g>
				<g>
					
						<ellipse transform="matrix(0.7563 -0.6542 0.6542 0.7563 -178.5468 185.4909)" class="st1" cx="159.7" cy="332.4" rx="2.3" ry="2.3"/>
				</g>
				<g>
					
						<ellipse transform="matrix(0.7563 -0.6542 0.6542 0.7563 -176.6787 174.683)" class="st1" cx="146.1" cy="324.5" rx="0.1" ry="0.1"/>
				</g>
				<g>
					
						<ellipse transform="matrix(0.7563 -0.6542 0.6542 0.7563 -181.6162 171.368)" class="st1" cx="139.2" cy="329.5" rx="1.5" ry="1.5"/>
				</g>
				<g>
					
						<ellipse transform="matrix(0.7563 -0.6542 0.6542 0.7563 -201.9474 172.4683)" class="st1" cx="130.5" cy="357.3" rx="2.1" ry="2.1"/>
				</g>
				<path class="st1" d="M36.6,257.8"/>
				<path class="st1" d="M53.5,259.3"/>
				<path class="st1" d="M53.5,259.3"/>
				<path class="st1" d="M40.7,264.7"/>
				<line class="st1" x1="20.6" y1="258.4" x2="48.2" y2="245"/>
				<line class="st1" x1="20.6" y1="258.4" x2="40.9" y2="264.4"/>
				<line class="st1" x1="59.3" y1="279.6" x2="40.9" y2="264.4"/>
				<line class="st1" x1="40.9" y1="264.4" x2="76.6" y2="246"/>
				<path class="st1" d="M61.3,248"/>
				<path class="st1" d="M40.9,264.4"/>
				<path class="st1" d="M56.2,252.1"/>
				<line class="st1" x1="59.3" y1="254.7" x2="59.3" y2="279.6"/>
				<path class="st1" d="M76.9,249.2"/>
				<path class="st1" d="M66,263.7"/>
				<path class="st1" d="M76.9,249.2"/>
				<path class="st1" d="M43.3,241.1"/>
				<path class="st1" d="M61.3,248"/>
				<path class="st1" d="M40.9,264.4"/>
				<path class="st1" d="M43.3,241.1"/>
				<path class="st1" d="M43.3,241.1"/>
				<line class="st1" x1="40.7" y1="264.7" x2="63.9" y2="204.2"/>
				<path class="st1" d="M60.4,241"/>
				<path class="st1" d="M63.8,230.3"/>
				<path class="st1" d="M76.9,249.2"/>
				<path class="st1" d="M75.7,237.3"/>
				<path class="st1" d="M63.8,230.3"/>
				<path class="st1" d="M75.7,237.3"/>
				<path class="st1" d="M145.8,319.1"/>
				<path class="st1" d="M147.2,323.9"/>
				<path class="st1" d="M145.8,319.1"/>
				<path class="st1" d="M145.8,319.1"/>
				<path class="st1" d="M162.3,318.8"/>
				<line class="st1" x1="155.1" y1="306.9" x2="147.2" y2="323.9"/>
				<line class="st1" x1="175.4" y1="257.4" x2="139.3" y2="279.9"/>
				<line class="st1" x1="183.2" y1="283.1" x2="139.3" y2="279.9"/>
				<line class="st1" x1="155.1" y1="306.9" x2="162.3" y2="318.8"/>
				<line class="st1" x1="183.2" y1="283.1" x2="155.1" y2="306.9"/>
				<line class="st1" x1="155.1" y1="306.9" x2="139.3" y2="279.9"/>
				<line class="st1" x1="183.2" y1="283.1" x2="162.3" y2="318.8"/>
				<line class="st1" x1="183.2" y1="283.1" x2="213" y2="256.4"/>
				<path class="st1" d="M193.3,255.1"/>
				<path class="st1" d="M180.8,241"/>
				<line class="st1" x1="195.2" y1="231.6" x2="183.2" y2="283.1"/>
				<path class="st1" d="M191.3,268.8"/>
				<path class="st1" d="M213,256.4"/>
				<line class="st1" x1="195.2" y1="231.6" x2="213" y2="256.4"/>
				<path class="st1" d="M178.9,254.7"/>
				<path class="st1" d="M195.2,231.6"/>
				<path class="st1" d="M167.5,229.4"/>
				<path class="st1" d="M178.9,254.7"/>
				<line class="st1" x1="167.5" y1="229.4" x2="195.2" y2="231.6"/>
				<path class="st1" d="M178.9,254.7"/>
				<path class="st1" d="M155.1,246.7"/>
				<path class="st1" d="M167.5,229.4"/>
				<path class="st1" d="M140.4,279.9"/>
				<path class="st1" d="M150.8,256.4"/>
				<path class="st1" d="M114.7,258.6"/>
				<path class="st1" d="M152.4,256.6"/>
				<path class="st1" d="M136.3,229.6"/>
				<path class="st1" d="M129.2,255"/>
				<path class="st1" d="M140.4,240.9"/>
				<path class="st1" d="M138.4,228.8"/>
				<path class="st1" d="M151.1,252.3"/>
				<path class="st1" d="M132,242.7"/>
				<path class="st1" d="M107.8,253.2"/>
				<path class="st1" d="M140.4,240.9"/>
				<line class="st1" x1="120.1" y1="236.7" x2="153.5" y2="206.4"/>
				<line class="st1" x1="167.5" y1="229.4" x2="99.8" y2="239.5"/>
				<line class="st1" x1="120.1" y1="236.7" x2="110.2" y2="211.3"/>
				<path class="st1" d="M163.7,232.4"/>
				<path class="st1" d="M151.2,249.7"/>
				<line class="st1" x1="81.2" y1="194.3" x2="63.9" y2="204.2"/>
				<path class="st1" d="M72.1,230.8"/>
				<path class="st1" d="M63.9,204.2"/>
				<line class="st1" x1="72.5" y1="218.4" x2="40.7" y2="264.7"/>
				<line class="st1" x1="72.5" y1="218.4" x2="63.9" y2="204.2"/>
				<line class="st1" x1="81.2" y1="194.3" x2="72.5" y2="218.4"/>
				<path class="st1" d="M75.7,237.3"/>
				<path class="st1" d="M99.8,239.5"/>
				<line class="st1" x1="99.8" y1="239.5" x2="76.6" y2="246"/>
				<path class="st1" d="M99.8,239.5"/>
				<path class="st1" d="M167.5,229.4"/>
				<line class="st1" x1="99.8" y1="239.5" x2="72.5" y2="218.4"/>
				<path class="st1" d="M134.6,229.8"/>
				<path class="st1" d="M117.9,224.7"/>
				<path class="st1" d="M110.2,211.3"/>
				<path class="st1" d="M117.9,224.7"/>
				<line class="st1" x1="110.2" y1="211.3" x2="99.8" y2="239.5"/>
				<line class="st1" x1="110.2" y1="211.3" x2="72.5" y2="218.4"/>
				<line class="st1" x1="87.9" y1="206.4" x2="81.2" y2="194.3"/>
				<line class="st1" x1="87.9" y1="206.4" x2="72.5" y2="218.4"/>
				<line class="st1" x1="110.2" y1="211.3" x2="87.9" y2="206.4"/>
				<line class="st1" x1="153.5" y1="206.4" x2="167.5" y2="229.4"/>
				<path class="st1" d="M153.7,206.7"/>
				<path class="st1" d="M131.4,217.7"/>
				<path class="st1" d="M110.2,211.3"/>
				<line class="st1" x1="153.7" y1="206.7" x2="110.2" y2="211.3"/>
				<path class="st1" d="M72.1,230.8"/>
				<path class="st1" d="M43.3,241.1"/>
				<path class="st1" d="M140.4,240.9"/>
				<path class="st1" d="M127.7,216.6"/>
				<path class="st1" d="M121.9,254.1"/>
				<path class="st1" d="M132.7,262.5"/>
				<path class="st1" d="M151.2,252.2"/>
				<path class="st1" d="M114.7,258.6"/>
				<path class="st1" d="M151.2,252.2"/>
				<path class="st1" d="M139.9,262.9"/>
				<path class="st1" d="M139.3,279.9"/>
				<path class="st1" d="M139.9,262.9"/>
				<path class="st1" d="M139.9,262.9"/>
				<path class="st1" d="M120.1,276.4"/>
				<path class="st1" d="M114.7,258.6"/>
				<line class="st1" x1="120.1" y1="276.4" x2="152.6" y2="256.8"/>
				<path class="st1" d="M121.9,254.1"/>
				<path class="st1" d="M123.2,261.3"/>
				<path class="st1" d="M114.7,258.6"/>
				<path class="st1" d="M121.9,254.1"/>
				<path class="st1" d="M114.7,258.6"/>
				<path class="st1" d="M114.7,257.8"/>
				<line class="st1" x1="120.1" y1="257.8" x2="99.8" y2="239.5"/>
				<line class="st1" x1="120.1" y1="276.4" x2="120.1" y2="236.7"/>
				<path class="st1" d="M63.9,261.7"/>
				<path class="st1" d="M65.9,263.6"/>
				<path class="st1" d="M76.9,249.2"/>
				<path class="st1" d="M60.4,241"/>
				<path class="st1" d="M76.9,249.2"/>
				<path class="st1" d="M60.1,253.1"/>
				<path class="st1" d="M69.2,246.3"/>
				<path class="st1" d="M43.3,241.1"/>
				<path class="st1" d="M50.1,236.4"/>
				<path class="st1" d="M60.4,241"/>
				<path class="st1" d="M50.1,236.4"/>
				<path class="st1" d="M60.4,241"/>
				<path class="st1" d="M75.6,237"/>
				<path class="st1" d="M69.1,246"/>
				<path class="st1" d="M60.4,241"/>
				<path class="st1" d="M75.7,237.3"/>
				<path class="st1" d="M61.3,248"/>
				<path class="st1" d="M56.2,252.1"/>
				<path class="st1" d="M43.3,241.1"/>
				<path class="st1" d="M50.1,236.4"/>
				<path class="st1" d="M72.5,218.4"/>
				<path class="st1" d="M86.6,228.1"/>
				<path class="st1" d="M63.9,204.2"/>
				<path class="st1" d="M86.2,228.8"/>
				<path class="st1" d="M99.8,239.5"/>
				<path class="st1" d="M86.6,228.1"/>
				
					<ellipse transform="matrix(0.8033 -0.5956 0.5956 0.8033 -141.0037 125.9037)" class="st1" cx="120.1" cy="276.4" rx="1.5" ry="1.5"/>
				
					<ellipse transform="matrix(0.8033 -0.5956 0.5956 0.8033 -123.0047 106.5546)" class="st1" cx="99.8" cy="239.5" rx="0.3" ry="0.3"/>
				<ellipse transform="matrix(0.8033 -0.5956 0.5956 0.8033 -154.8715 90.3307)" class="st1" cx="59.3" cy="279.6" rx="2" ry="2"/>
				<path class="st1" d="M76.6,270.2"/>
				
					<ellipse transform="matrix(0.8033 -0.5956 0.5956 0.8033 -129.9147 122.2404)" class="st1" cx="120.1" cy="257.8" rx="2" ry="2"/>
				
					<ellipse transform="matrix(0.8033 -0.5956 0.5956 0.8033 -152.3565 152.8921)" class="st1" cx="155.3" cy="307.1" rx="1" ry="1"/>
				
					<ellipse transform="matrix(0.8033 -0.5956 0.5956 0.8033 -122.8725 141.2637)" class="st1" cx="152.4" cy="256.6" rx="1.6" ry="1.6"/>
				
					<ellipse transform="matrix(0.8033 -0.5956 0.5956 0.8033 -105.6349 92.9905)" class="st1" cx="87.9" cy="206.4" rx="1.6" ry="1.6"/>
				
					<ellipse transform="matrix(0.8033 -0.5956 0.5956 0.8033 -149.4307 76.3899)" class="st1" cx="40.9" cy="264.4" rx="2.4" ry="2.4"/>
				
					<ellipse transform="matrix(0.8033 -0.5956 0.5956 0.8033 -149.83 63.2272)" class="st1" cx="20.8" cy="258.4" rx="2.2" ry="2.2"/>
				
					<ellipse transform="matrix(0.8033 -0.5956 0.5956 0.8033 -140.324 85.5277)" class="st1" cx="59.3" cy="255.2" rx="2.3" ry="2.3"/>
				
					<ellipse transform="matrix(0.8033 -0.5956 0.5956 0.8033 -109.0233 78.2429)" class="st1" cx="63.9" cy="204.2" rx="1.8" ry="1.8"/>
				
					<ellipse transform="matrix(0.8033 -0.5956 0.5956 0.8033 -115.9405 86.3845)" class="st1" cx="72.8" cy="218.7" rx="2.4" ry="2.4"/>
				
					<ellipse transform="matrix(0.8033 -0.5956 0.5956 0.8033 -104.1635 107.1705)" class="st1" cx="110.2" cy="211.3" rx="1.5" ry="1.5"/>
				<path class="st1" d="M181.5,284.3c-0.7-0.9-0.5-2.2,0.4-2.9l0,0c0.9-0.7,2.2-0.5,2.9,0.4l0,0c0.7,0.9,0.5,2.2-0.4,2.9l0,0
					C183.5,285.5,182.2,285.3,181.5,284.3L181.5,284.3z"/>
				<path class="st1" d="M174.3,258.4c-0.6-0.8-0.4-1.8,0.4-2.4l0,0c0.8-0.6,1.8-0.4,2.4,0.4l0,0c0.6,0.8,0.4,1.8-0.4,2.4l0,0
					C175.9,259.3,174.9,259.1,174.3,258.4L174.3,258.4z"/>
				<path class="st1" d="M210.8,257.7c-0.7-1-0.5-2.4,0.4-3.1l0,0c1-0.7,2.4-0.5,3.1,0.5l0,0c0.7,1,0.5,2.4-0.4,3.1l0,0
					C213,258.9,211.6,258.7,210.8,257.7L210.8,257.7z"/>
				<path class="st1" d="M137.7,281.8c-0.7-1-0.5-2.3,0.4-3l0,0c1-0.7,2.3-0.5,3,0.4l0,0c0.7,1,0.5,2.3-0.4,3l0,0
					C139.7,283,138.4,282.8,137.7,281.8L137.7,281.8z"/>
				<path class="st1" d="M193.7,232.7c-0.6-0.8-0.4-2,0.4-2.6l0,0c0.8-0.6,2-0.4,2.6,0.4l0,0c0.6,0.8,0.4,2-0.4,2.6l0,0
					C195.5,233.7,194.3,233.5,193.7,232.7L193.7,232.7z"/>
				<path class="st1" d="M161,319.7c-0.4-0.6-0.3-1.4,0.3-1.8l0,0c0.6-0.4,1.4-0.3,1.8,0.3l0,0c0.4,0.6,0.3,1.4-0.3,1.8l0,0
					C162.2,320.4,161.4,320.3,161,319.7L161,319.7z"/>
				<path class="st1" d="M145.9,324.8c-0.5-0.7-0.4-1.7,0.3-2.2l0,0c0.7-0.5,1.7-0.4,2.2,0.3l0,0c0.5,0.7,0.4,1.7-0.3,2.2l0,0
					C147.4,325.7,146.4,325.6,145.9,324.8L145.9,324.8z"/>
				<path class="st1" d="M151.9,207.9c-0.7-0.9-0.5-2.2,0.4-2.8l0,0c0.9-0.7,2.2-0.5,2.8,0.4l0,0c0.7,0.9,0.5,2.2-0.4,2.8l0,0
					C153.8,208.9,152.6,208.8,151.9,207.9L151.9,207.9z"/>
				<path class="st1" d="M165.9,230.6c-0.5-0.7-0.4-1.8,0.3-2.3l0,0c0.7-0.5,1.8-0.4,2.3,0.3l0,0c0.5,0.7,0.4,1.8-0.3,2.3l0,0
					C167.5,231.5,166.5,231.3,165.9,230.6L165.9,230.6z"/>
				
					<ellipse transform="matrix(0.8033 -0.5956 0.5956 0.8033 -99.7837 86.5698)" class="st1" cx="81.2" cy="194.3" rx="1.4" ry="1.4"/>
				<path class="st1" d="M98.3,240.6c-0.6-0.8-0.4-2,0.4-2.6l0,0c0.8-0.6,2-0.4,2.6,0.4l0,0c0.6,0.8,0.4,2-0.4,2.6l0,0
					C100.1,241.6,98.9,241.4,98.3,240.6L98.3,240.6z"/>
				<path class="st1" d="M107.8,253.2"/>
				<path class="st1" d="M148.5,223.1"/>
				<path class="st1" d="M121.9,254.1"/>
				<path class="st1" d="M114.7,258.8"/>
				<path class="st1" d="M57.6,249.7"/>
				<line class="st1" x1="147.2" y1="323.9" x2="159.8" y2="332.6"/>
				<line class="st1" x1="147.2" y1="323.9" x2="139.2" y2="329.5"/>
				<line class="st1" x1="167.5" y1="229.4" x2="183.2" y2="283.1"/>
				
					<ellipse transform="matrix(0.8033 -0.5956 0.5956 0.8033 -131.4171 94.0415)" class="st1" cx="76.6" cy="246" rx="1.5" ry="1.5"/>
				<g>
					
						<ellipse transform="matrix(0.7563 -0.6542 0.6542 0.7563 -217.648 174.4868)" class="st1" cx="125.4" cy="379.4" rx="2.3" ry="2.3"/>
				</g>
			</g>
			
				<ellipse transform="matrix(0.8033 -0.5956 0.5956 0.8033 -136.4741 76.9412)" class="st1" cx="48.2" cy="245.1" rx="1.7" ry="1.7"/>
			<line class="st1" x1="120.1" y1="276.4" x2="137.3" y2="279.9"/>
			<line class="st1" x1="137.3" y1="279.9" x2="147.9" y2="324.4"/>
			<line class="st1" x1="72.5" y1="218.4" x2="76.6" y2="246"/>
		</g>
		<line class="st1" x1="167.3" y1="230.3" x2="139.3" y2="279.9"/>
		<line class="st1" x1="120.1" y1="236.7" x2="150.8" y2="256.4"/>
		<path class="st1" d="M118.5,237.7c-0.7-1-0.5-2.3,0.4-3l0,0c1-0.7,2.3-0.5,3,0.4l0,0c0.7,1,0.5,2.3-0.4,3l0,0
			C120.5,238.9,119.2,238.7,118.5,237.7L118.5,237.7z"/>
		<line class="st1" x1="162" y1="318.9" x2="195.2" y2="302.9"/>
		<line class="st1" x1="130.5" y1="357.3" x2="125.4" y2="379.4"/>
		<line class="st1" x1="151.8" y1="355.8" x2="125.4" y2="379.4"/>
	</g>
</g>
</svg>
