<svg width="76" height="22" viewBox="0 0 76 22" fill="none" xmlns="http://www.w3.org/2000/svg">
<path d="M12.6896 11.9288C12.6896 11.0675 12.8539 10.2515 13.1826 9.48085C13.5113 8.71018 13.9646 8.03018 14.5426 7.44085C15.1319 6.84018 15.8119 6.36985 16.5826 6.02985C17.3533 5.68985 18.1806 5.51985 19.0646 5.51985C19.9373 5.51985 20.7589 5.68985 21.5296 6.02985C22.3003 6.36985 22.9803 6.84018 23.5696 7.44085C24.1703 8.03018 24.6349 8.71018 24.9636 9.48085C25.3036 10.2515 25.4736 11.0675 25.4736 11.9288C25.4736 12.8128 25.3036 13.6402 24.9636 14.4108C24.6349 15.1815 24.1703 15.8615 23.5696 16.4508C22.9803 17.0288 22.3003 17.4822 21.5296 17.8108C20.7589 18.1395 19.9373 18.3038 19.0646 18.3038C18.1806 18.3038 17.3533 18.1395 16.5826 17.8108C15.8119 17.4822 15.1319 17.0288 14.5426 16.4508C13.9646 15.8615 13.5113 15.1815 13.1826 14.4108C12.8539 13.6402 12.6896 12.8128 12.6896 11.9288ZM15.2396 11.9288C15.2396 12.4842 15.3359 13.0055 15.5286 13.4928C15.7326 13.9688 16.0103 14.3938 16.3616 14.7678C16.7243 15.1305 17.1379 15.4138 17.6026 15.6178C18.0786 15.8218 18.5943 15.9238 19.1496 15.9238C19.6823 15.9238 20.1753 15.8218 20.6286 15.6178C21.0933 15.4138 21.4956 15.1305 21.8356 14.7678C22.1756 14.3938 22.4419 13.9688 22.6346 13.4928C22.8273 13.0055 22.9236 12.4842 22.9236 11.9288C22.9236 11.3622 22.8216 10.8352 22.6176 10.3478C22.4249 9.86051 22.1529 9.43551 21.8016 9.07285C21.4616 8.69885 21.0593 8.40985 20.5946 8.20585C20.1299 8.00185 19.6256 7.89985 19.0816 7.89985C18.5376 7.89985 18.0333 8.00185 17.5686 8.20585C17.1039 8.40985 16.6959 8.69885 16.3446 9.07285C15.9933 9.43551 15.7213 9.86051 15.5286 10.3478C15.3359 10.8352 15.2396 11.3622 15.2396 11.9288ZM27.9312 18.1678V5.65585H31.6712C32.9292 5.65585 34.0002 5.84285 34.8842 6.21685C35.7682 6.59085 36.4765 7.08951 37.0092 7.71285C37.5532 8.33618 37.9498 9.03318 38.1992 9.80385C38.4485 10.5745 38.5732 11.3508 38.5732 12.1328C38.5732 13.0622 38.4032 13.9008 38.0632 14.6488C37.7345 15.3855 37.2812 16.0202 36.7032 16.5528C36.1252 17.0742 35.4565 17.4765 34.6972 17.7598C33.9378 18.0318 33.1332 18.1678 32.2832 18.1678H27.9312ZM30.3962 15.7878H31.8582C32.4815 15.7878 33.0482 15.7085 33.5582 15.5498C34.0682 15.3798 34.5045 15.1362 34.8672 14.8188C35.2412 14.5015 35.5245 14.1048 35.7172 13.6288C35.9212 13.1415 36.0232 12.5862 36.0232 11.9628C36.0232 11.1468 35.8872 10.4838 35.6152 9.97385C35.3545 9.45251 35.0258 9.05018 34.6292 8.76685C34.2438 8.48351 33.8472 8.29085 33.4392 8.18885C33.0312 8.07551 32.6855 8.01885 32.4022 8.01885H30.3962V15.7878ZM38.7721 18.1678L44.4161 5.16285H44.5521L50.1961 18.1678H47.3401L43.7361 9.02185L45.5211 7.79785L41.2031 18.1678H38.7721ZM42.6311 13.6458H46.3881L47.2551 15.7198H41.8661L42.6311 13.6458ZM55.811 5.65585C56.593 5.65585 57.29 5.75785 57.902 5.96185C58.514 6.15451 59.024 6.43785 59.432 6.81185C59.8514 7.17451 60.1687 7.61651 60.384 8.13785C60.5994 8.64785 60.707 9.22585 60.707 9.87185C60.707 10.3818 60.6277 10.8918 60.469 11.4018C60.3217 11.9118 60.0724 12.3765 59.721 12.7958C59.381 13.2152 58.9277 13.5552 58.361 13.8158C57.7944 14.0652 57.0917 14.1898 56.253 14.1898H54.485V18.1678H52.02V5.65585H55.811ZM56.236 11.8098C56.61 11.8098 56.9217 11.7475 57.171 11.6228C57.4204 11.4982 57.613 11.3395 57.749 11.1468C57.8964 10.9542 57.9984 10.7558 58.055 10.5518C58.123 10.3365 58.157 10.1382 58.157 9.95685C58.157 9.82085 58.1344 9.65085 58.089 9.44685C58.055 9.23151 57.9757 9.01618 57.851 8.80085C57.7264 8.58551 57.5337 8.40418 57.273 8.25685C57.0237 8.10951 56.6837 8.03585 56.253 8.03585H54.485V11.8098H56.236ZM58.548 13.3398L61.642 18.1678H58.769L55.607 13.4078L58.548 13.3398ZM62.2633 18.1678L67.9073 5.16285H68.0433L73.6873 18.1678H70.8313L67.2273 9.02185L69.0123 7.79785L64.6943 18.1678H62.2633ZM66.1223 13.6458H69.8793L70.7463 15.7198H65.3573L66.1223 13.6458Z" fill="#187977"/>
<path d="M72.2637 4.68457L70.9307 6.72656H9.55176L9.55078 6.72754C9.06298 6.72754 8.41942 6.76011 7.625 6.84277C6.83071 6.92545 6.41383 7.1021 5.92188 7.33008C5.44187 7.54608 5.00998 7.8586 4.62598 8.2666C4.25403 8.66258 3.96012 9.13095 3.74414 9.6709C3.52824 10.1988 3.41992 10.7746 3.41992 11.3984C3.41992 12.0584 3.51601 12.6648 3.70801 13.2168C3.91194 13.7565 4.19393 14.2243 4.55371 14.6201C4.92571 15.0161 5.36417 15.3221 5.86816 15.5381C6.38416 15.7541 6.96626 15.8623 7.61426 15.8623C8.31016 15.8623 8.91012 15.7541 9.41406 15.5381C9.91786 15.3102 10.3136 15.0703 10.6016 14.8184L11.5918 16.9609C11.4238 17.0809 11.1474 17.2424 10.7637 17.4463C10.3798 17.6382 9.91215 17.8128 9.36035 17.9688C8.82035 18.1128 8.21957 18.178 7.55957 18.166C6.52792 18.142 5.59828 17.9562 4.77051 17.6084C3.95451 17.2604 3.25764 16.78 2.68164 16.168C2.11785 15.5561 1.68567 14.8543 1.38574 14.0625C1.08576 13.2705 0.936523 12.43 0.936523 11.542C0.936571 10.5342 1.09234 9.61596 1.4043 8.78809C1.71627 7.94829 2.1539 7.22224 2.71777 6.61035C3.29377 5.99835 3.97851 5.52448 4.77051 5.18848C5.56236 4.8526 6.4321 4.68459 7.37988 4.68457H72.2637Z" fill="#187977"/>
</svg>
