<?xml version="1.0" encoding="UTF-8"?>
<svg id="Ebene_1" xmlns="http://www.w3.org/2000/svg" version="1.1" viewBox="0 0 834.8 141.5">
  <!-- Generator: Adobe Illustrator 29.3.1, SVG Export Plug-In . SVG Version: 2.1.0 Build 151)  -->
  <defs>
    <style>
      .st0 {
        fill: #1d1d1b;
      }

      .st1 {
        fill: #fff;
      }

      .st2 {
        fill: #a79600;
      }

      .st3 {
        fill: #ffe500;
      }
    </style>
  </defs>
  <rect class="st3" x="151.2" width="141.5" height="141.5"/>
  <rect class="st3" width="141.5" height="141.5"/>
  <g>
    <circle class="st2" cx="220.4" cy="72.6" r="28.4" transform="translate(-.2 .6) rotate(-.2)"/>
    <path d="M220.3,57c-8.6,0-15.7,7-15.7,15.7s7,15.7,15.7,15.7,15.7-7,15.7-15.7-7-15.7-15.7-15.7Z"/>
    <path class="st1" d="M210.1,70.5c-3.5,0-6.3-2.8-6.3-6.3s2.8-6.3,6.3-6.3,6.3,2.8,6.3,6.3-2.8,6.3-6.3,6.3Z"/>
  </g>
  <g>
    <path d="M275.5,84.1c-11.8,9.7-22.9,18.7-47.6,19.8-22.3,1-52.1-13.2-65.7-5.9l-2.6-3.2c13.7-5.2,24.4-2.5,44.5,4.1,18.3,6,40.1,1.1,42.4.5,16.3-4.6,28.9-16.8,28.9-16.8"/>
    <path d="M169.6,92.3c-2.6-3.9-2.6-12.9-2.6-12.9,0,0,4.7-11.4,14.9-20.9,13-12.1,26.8-12.9,34.4-12.9,7.6,0,17.1,1.7,28.2,8.2,12.3,7.2,23.5,18.7,30.9,30.4l10.1-8.7c-7.5-11.6-20.4-24-33.5-30.6-18.8-9.6-33-9.9-47-6.4-11.2,3.5-18.9,9.1-26.5,16.7-6.6,6.6-14.5,20.1-20,30.6,0,0,6.1,4.4,10,6.9"/>
  </g>
  <g>
    <g>
      <path class="st0" d="M321,13.8h9.3v26.1h10.2V13.8h9.3v62.8h-9.3v-28.2h-10.2v28.2h-9.3V13.8Z"/>
      <path class="st0" d="M361.1,29.9h8.6v46.6h-8.6V29.9ZM361.1,13.8h8.6v8.8h-8.6v-8.8Z"/>
      <path class="st0" d="M380.6,13.8h8.6v62.8h-8.6V13.8Z"/>
      <path class="st0" d="M402.2,37.1h-5.1v-7.2h5.1v-5.9c0-8,2.3-10.8,9.7-10.8h4.5v7h-1.9c-3.1,0-3.7,1.3-3.7,4.9v4.8h5.4v7.2h-5.4v39.4h-8.6v-39.4Z"/>
      <path class="st0" d="M428.6,63v.4c0,4.5,1.5,6.8,4,6.8s3.8-1.8,3.8-4.7-2.7-6.4-6.9-10.5c-4.4-4.4-7.7-7.7-7.7-14.5s4.2-11.3,11.4-11.3,10.8,4.3,11.3,12.2l-7.6.6c-.2-4.2-1.2-6.1-3.7-6.1s-3.5,1.3-3.5,3.8c0,3.7,2.3,5.9,5.6,9.1,5.6,5.4,9.3,9.7,9.3,16.3s-4.8,12.2-11.6,12.2-11.8-4.6-12-13.7l7.7-.7Z"/>
      <path class="st0" d="M462.4,76.9c6.4.4,9.4,1.7,9.4,4.5s-2.8,4.5-7.3,4.5-7.1-1.5-7.1-4.3,1.7-3.8,4.9-4.7ZM456.8,63.2c-3.3,2.2-4.9,4.5-4.9,7.2s1.6,4.5,4.8,5.3c-5,1.7-7.5,4.3-7.5,7.6,0,5.2,4.9,8.3,14.2,8.3s16.3-4.9,16.3-11.7-2.4-7.1-7.5-9.1c-2.1-.9-5.5-1.1-10.1-1.7-1.6-.2-2.5-1-2.5-2s.7-2.1,2-2.9c.6,0,1.2,0,1.7,0,8.2,0,12.2-5.8,12.2-17.7s-.3-6.8-.9-8.9c1-.7,2.1-1,3.5-1s1.3,0,2,.2v-7.6h-.6c-3,0-5.2,1.3-6.7,4.1-2-2.9-4.9-4.2-9-4.2-9.2,0-13,5.7-13,18.2,0,8.4,1.3,13.4,6.1,15.9ZM462.9,57.3c-3.3,0-3.8-3.2-3.8-10.6s.5-10.6,3.8-10.6,3.8,3.2,3.8,10.6-.5,10.6-3.8,10.6Z"/>
      <path class="st0" d="M493.3,42.9c0-4.3,1.3-6.3,4.5-6.3s4.5,2,4.5,6.3v4.6h-8.9v-4.6ZM510.5,60.3h-8.3v3.3c0,4.4-1.3,6.5-4.5,6.5s-4.5-2.1-4.5-6.5v-8.8h17.8v-7c0-12.4-4.3-18.6-13.2-18.6s-13.2,5.4-13.2,16.6v15c0,11.2,4.2,16.6,12.7,16.6s13.2-5.2,13.2-14.4v-2.7Z"/>
      <path class="st0" d="M519.7,29.9h8.1v5.7c3.1-4,6.3-6.4,9-6.4s5.8,2.4,6.8,6.4c3.2-4,6.4-6.4,9.2-6.4,5.9,0,7.3,4.9,7.3,14.3v33.1h-8.6v-33.4c0-4-.9-5.7-3.2-5.7s-2.7,1-4.1,3.1v36h-8.7v-33.4c0-4-.9-5.7-3.1-5.7s-2.7,1-4.1,3.1v36h-8.7V29.9Z"/>
      <path class="st0" d="M578.2,42.9c0-4.3,1.3-6.3,4.5-6.3s4.5,2,4.5,6.3v4.6h-8.9v-4.6ZM595.4,60.3h-8.3v3.3c0,4.4-1.3,6.5-4.5,6.5s-4.5-2.1-4.5-6.5v-8.8h17.8v-7c0-12.4-4.3-18.6-13.2-18.6s-13.2,5.4-13.2,16.6v15c0,11.2,4.2,16.6,12.7,16.6s13.2-5.2,13.2-14.4v-2.7Z"/>
      <path class="st0" d="M604.9,29.9h8.6v46.6h-8.6V29.9ZM604.9,13.8h8.6v8.8h-8.6v-8.8Z"/>
      <path class="st0" d="M624.1,29.9h8.1v5.7c3.3-4.1,6.6-6.4,9.7-6.4,6.3,0,7.9,4.8,7.9,14.4v33h-8.7v-33.3c0-4.1-.9-5.9-3.5-5.9s-3.3,1.1-4.9,3.3v36h-8.7V29.9Z"/>
      <path class="st0" d="M664.8,63v.4c0,4.5,1.5,6.8,4.1,6.8s3.8-1.8,3.8-4.7-2.7-6.4-6.9-10.5c-4.4-4.4-7.7-7.7-7.7-14.5s4.2-11.3,11.4-11.3,10.8,4.3,11.3,12.2l-7.6.6c-.2-4.2-1.2-6.1-3.7-6.1s-3.5,1.3-3.5,3.8c0,3.7,2.3,5.9,5.6,9.1,5.6,5.4,9.3,9.7,9.3,16.3s-4.8,12.2-11.6,12.2-11.8-4.6-12-13.7l7.7-.7Z"/>
      <path class="st0" d="M713.6,63c0,9.2-4.9,14.4-13.2,14.4s-12.7-5.5-12.7-16.6v-15c0-11.1,4.2-16.6,12.7-16.6s13.2,5.2,13.2,14.9v2.1h-8.3v-3.2c0-4.3-1.3-6.3-4.5-6.3s-4.5,2-4.5,6.3v20.7c0,4.3,1.3,6.4,4.5,6.4s4.5-2.1,4.5-6.4v-3.3h8.3v2.7Z"/>
      <path class="st0" d="M722.6,13.8h8.7v21.4c2.8-3.7,6.3-5.9,9.2-5.9,6.3,0,7.9,4.8,7.9,14.4v33h-8.7v-33.3c0-4.1-.9-5.9-3.5-5.9s-3.3,1.1-4.9,3.3v36h-8.7V13.8Z"/>
    </g>
    <path class="st0" d="M774.5,52.5v12.9c-1.7,2.4-3.6,3.7-5.5,3.7s-3.9-2-3.9-5.3c0-4.7,3-8.3,9.4-11.4ZM775.5,76.6h8.5c-.6-2.7-.9-6.1-.9-10.2v-21.5c0-10.8-3.2-15.7-12-15.7s-13.4,4.9-14,13.5h8.2c0-3.7,1.8-6.2,4.9-6.2s4.3,2,4.3,6.2v2.5c-12.2,5.5-18,11.7-18,21s3.6,10.9,9.2,10.9,6.4-1.7,8.9-5.2l.9,4.7Z"/>
    <path class="st0" d="M794.9,37.1h-5.1v-7.2h5.1v-5.9c0-8,2.3-10.8,9.7-10.8h4.5v7h-1.9c-3.1,0-3.7,1.3-3.7,4.9v4.8h5.4v7.2h-5.4v39.4h-8.6v-39.4Z"/>
    <path class="st0" d="M819,37.2h-5v-7.3h5v-12.5h8.7v12.5h6.2v7.3h-6.2v25.7c0,4.6.3,6.7,3.6,6.7s1.7,0,2.8-.2v7c-1.6.5-3.1.8-4.8.8-8.3,0-10.2-4-10.2-14.9v-25.2Z"/>
    <g>
      <path class="st0" d="M328.8,122.8c-1,2.1-2.1,3.2-3.2,3.2-2.1,0-2.8-3.3-2.8-10.1s.7-9.3,2.9-9.3,2.1,1,3.2,3.1v13.1ZM331,127.8v-32.5h-2.3v11.5c-1-1.7-2.3-2.6-3.4-2.6-3.2,0-4.9,3.9-4.9,11.7s1.6,12.4,5,12.4,2.5-.9,3.6-2.6l.4,2h1.7Z"/>
      <path class="st0" d="M337.6,114.3c.2-5.4,1.2-8.1,3.3-8.1s3,2.7,3.2,8.1h-6.5ZM346.3,120.6h-2.2c0,3.6-1.1,5.5-3,5.5s-3.5-3-3.5-9.4v-.4h8.8v-.7c0-7.7-1.9-11.7-5.5-11.7s-5.5,4-5.5,12.2,1.7,12.2,5.5,12.2,5.4-2.7,5.5-7.7Z"/>
      <path class="st0" d="M350.1,104.5h2v3.5c.8-2.5,2.4-3.8,4.4-3.8s.6,0,.8,0v2.5c-.2,0-.4,0-.6,0-3,0-4.5,2.1-4.5,6.1v15h-2.2v-23.3Z"/>
      <path class="st0" d="M371,125.4v-13.2h2.1c3.8,0,5.3,2.1,5.3,7s-1.5,6.2-5.2,6.2h-2.2ZM368.5,127.8h4.7c5.3,0,7.8-2.6,7.8-8.4s-1.2-7.4-3.9-8.7c2.1-1.1,3.4-3.6,3.4-7.2,0-6.1-2.3-8.2-8-8.2h-4v32.5ZM371,109.8v-12.1h2.2c3.3,0,4.8,1.8,4.8,5.8s-1.6,6.3-5.3,6.3h-1.6Z"/>
      <path class="st0" d="M384.8,95.4h2.3v32.5h-2.3v-32.5Z"/>
      <path class="st0" d="M392.5,104.5h2.3v23.3h-2.3v-23.3ZM392.2,96h2.7v3h-2.7v-3Z"/>
      <path class="st0" d="M400.1,104.5h2.2v2.4c1.3-1.8,2.7-2.7,4.1-2.7,2.5,0,3.4,2.2,3.4,6.8v16.8h-2.2v-17.1c0-2.8-.4-4.2-1.7-4.2s-2.4,1-3.6,3.1v18.2h-2.2v-23.3Z"/>
      <path class="st0" d="M422.3,122.8c-1,2.1-2.1,3.2-3.2,3.2-2.1,0-2.8-3.3-2.8-10.1s.7-9.3,2.9-9.3,2.1,1,3.2,3.1v13.1ZM424.5,127.8v-32.5h-2.3v11.5c-1-1.7-2.3-2.6-3.4-2.6-3.2,0-4.9,3.9-4.9,11.7s1.6,12.4,5,12.4,2.5-.9,3.6-2.6l.4,2h1.7Z"/>
      <path class="st0" d="M431.1,114.3c.2-5.4,1.2-8.1,3.3-8.1s3,2.7,3.2,8.1h-6.5ZM439.8,120.6h-2.2c0,3.6-1.1,5.5-3,5.5s-3.5-3-3.5-9.4v-.4h8.8v-.7c0-7.7-1.9-11.7-5.5-11.7s-5.5,4-5.5,12.2,1.7,12.2,5.5,12.2,5.4-2.7,5.5-7.7Z"/>
      <path class="st0" d="M443.6,104.5h2.2v2.4c1.3-1.8,2.7-2.7,4.1-2.7,2.5,0,3.4,2.2,3.4,6.8v16.8h-2.2v-17.1c0-2.8-.4-4.2-1.7-4.2s-2.4,1-3.6,3.1v18.2h-2.2v-23.3Z"/>
      <path class="st0" d="M476.7,127.8h-2.2v-2.4c-1.3,1.8-2.7,2.7-4.1,2.7-2.5,0-3.4-2.2-3.4-6.8v-16.8h2.2v17.1c0,2.8.4,4.1,1.7,4.1s2.4-1,3.6-3v-18.2h2.2v23.3Z"/>
      <path class="st0" d="M482.2,104.5h2.2v2.4c1.3-1.8,2.7-2.7,4.1-2.7,2.5,0,3.4,2.2,3.4,6.8v16.8h-2.2v-17.1c0-2.8-.4-4.2-1.7-4.2s-2.4,1-3.6,3.1v18.2h-2.2v-23.3Z"/>
      <path class="st0" d="M504.3,122.8c-1,2.1-2.1,3.2-3.2,3.2-2.1,0-2.8-3.3-2.8-10.1s.7-9.3,2.9-9.3,2.1,1,3.2,3.1v13.1ZM506.6,127.8v-32.5h-2.3v11.5c-1-1.7-2.3-2.6-3.4-2.6-3.2,0-4.9,3.9-4.9,11.7s1.6,12.4,5,12.4,2.5-.9,3.6-2.6l.4,2h1.6Z"/>
      <path class="st0" d="M521.1,119.3v.5c0,4.1,1.4,6.3,3.8,6.3s3.6-1.9,3.6-5.3-.9-5.3-2.5-7c-2.7-2.9-4.8-4.9-5.7-7-.8-1.7-1.1-3.4-1.1-5.3,0-4.2,2.3-7,5.7-7s5.8,3,5.8,8.6v.5h-2.3c0-4.6-1.1-6.8-3.5-6.8s-3.3,1.8-3.3,4.7.8,4.5,2.5,6.3c2.7,2.9,4.8,5,5.6,6.8.9,1.9,1.3,3.8,1.3,5.9,0,4.9-2.3,7.8-6,7.8s-6-3.1-6-8.7v-.4h2.3Z"/>
      <path class="st0" d="M535.1,114.3c.2-5.4,1.2-8.1,3.3-8.1s3,2.7,3.2,8.1h-6.5ZM543.7,120.6h-2.2c0,3.6-1.1,5.5-3,5.5s-3.5-3-3.5-9.4v-.4h8.8v-.7c0-7.7-1.9-11.7-5.5-11.7s-5.5,4-5.5,12.2,1.7,12.2,5.5,12.2,5.4-2.7,5.5-7.7Z"/>
      <path class="st0" d="M547.6,95.4h2.2v11.5c1.3-1.8,2.7-2.7,4.1-2.7,2.5,0,3.4,2.2,3.4,6.8v16.8h-2.2v-17.1c0-2.8-.4-4.2-1.7-4.2s-2.4,1-3.6,3.1v18.2h-2.2v-32.5Z"/>
      <path class="st0" d="M563.5,121.1c.2,3.2,1.4,4.9,3.4,4.9s2.7-1.4,2.7-3.5-1.7-4-4.2-6.2c-2.3-2.2-3.9-3.8-3.9-6.9s1.9-5.4,4.8-5.4,5.1,2.5,5.3,6.9h-2.2c-.2-3.1-1.3-4.8-3.1-4.8s-2.7,1.3-2.7,3.2,1.5,3.4,3.6,5.3c2.8,2.6,4.6,4.4,4.6,7.8s-2.1,5.5-5,5.5-5.5-2.6-5.6-7.1h2.2Z"/>
      <path class="st0" d="M585.3,121.1c0,4.7-2,7.3-5.4,7.3s-5.5-4-5.5-12.2,1.7-12.2,5.5-12.2,5.1,2.6,5.4,7.2h-2.1c-.2-3.4-1.2-5-3.1-5s-3.2,3.3-3.2,10,.7,10,3.4,10,3-1.8,3-5.3h2.1v.3Z"/>
      <path class="st0" d="M589,95.4h2.2v11.5c1.3-1.8,2.7-2.7,4.1-2.7,2.5,0,3.4,2.2,3.4,6.8v16.8h-2.2v-17.1c0-2.8-.4-4.2-1.7-4.2s-2.4,1-3.6,3.1v18.2h-2.2v-32.5Z"/>
      <path class="st0" d="M601.5,104.5h2.1l2.3,16.2c0,.4.2,2,.4,4.8.2-1.8.3-3.3.6-4.8l2.6-16.2h2.3l2.4,16.4c.2,1,.3,2.5.4,4.5.2-2.4.3-3.9.4-4.6l2.7-16.4h2.2l-4.3,23.3h-2.2l-2.5-16.6c0-.4-.2-2-.4-4.7-.2,2.7-.3,4.3-.4,4.6l-2.7,16.7h-2.2l-3.8-23.3Z"/>
      <path class="st0" d="M629.8,123c-1.3,1.9-2.5,2.8-3.8,2.8s-2.4-1.3-2.4-3.5,2.1-5.5,6.2-7.6v8.4ZM630.2,127.8h2.2c-.2-1.4-.3-2.9-.3-4.4v-11.5c0-5.2-1.6-7.9-4.6-7.9s-5.1,2.6-5.4,7.1h2.1c.2-3.1,1.7-4.9,3.2-4.9s2.5,1.4,2.5,3.9v2c-5.7,2.8-8.5,5.8-8.5,10.1s1.7,5.8,4.2,5.8,3.2-.9,4.3-2.5l.3,2.2Z"/>
      <path class="st0" d="M646.9,121.1c0,4.7-2,7.3-5.4,7.3s-5.5-4-5.5-12.2,1.7-12.2,5.5-12.2,5.1,2.6,5.4,7.2h-2.1c-.2-3.4-1.2-5-3.1-5s-3.2,3.3-3.2,10,.7,10,3.4,10,3-1.8,3-5.3h2.1v.3Z"/>
      <path class="st0" d="M650.6,95.4h2.2v11.5c1.3-1.8,2.7-2.7,4.1-2.7,2.5,0,3.4,2.2,3.4,6.8v16.8h-2.2v-17.1c0-2.8-.4-4.2-1.7-4.2s-2.4,1-3.6,3.1v18.2h-2.2v-32.5Z"/>
      <path class="st0" d="M666.7,114.3c.2-5.4,1.2-8.1,3.3-8.1s3,2.7,3.2,8.1h-6.5ZM675.4,120.6h-2.2c0,3.6-1.1,5.5-3,5.5s-3.5-3-3.5-9.4v-.4h8.8v-.7c0-7.7-1.9-11.7-5.5-11.7s-5.5,4-5.5,12.2,1.7,12.2,5.5,12.2,5.4-2.7,5.5-7.7Z"/>
      <path class="st0" d="M679.2,104.5h2.2v2.4c1.3-1.8,2.7-2.7,4.1-2.7,2.5,0,3.4,2.2,3.4,6.8v16.8h-2.2v-17.1c0-2.8-.4-4.2-1.7-4.2s-2.4,1-3.6,3.1v18.2h-2.2v-23.3Z"/>
      <path class="st0" d="M708.4,97.2c2.9,0,4,4.7,4,14.4s-1.1,14.4-4,14.4-4-4.9-4-15.1,1.2-13.7,4-13.7ZM704.7,87.5v3.6h2.3v-3.6h-2.3ZM709.8,87.5v3.6h2.2v-3.6h-2.2ZM701.9,110.9c0,11.8,1.7,17.6,6.5,17.6s6.5-5.6,6.5-16.9-1.9-16.8-6.5-16.8-6.5,5.3-6.5,16.2Z"/>
      <path class="st0" d="M720.4,121.1c.2,3.2,1.4,4.9,3.4,4.9s2.7-1.4,2.7-3.5-1.7-4-4.2-6.2c-2.3-2.2-3.9-3.8-3.9-6.9s1.9-5.4,4.8-5.4,5.1,2.5,5.3,6.9h-2.2c-.2-3.1-1.3-4.8-3.1-4.8s-2.7,1.3-2.7,3.2,1.5,3.4,3.6,5.3c2.8,2.6,4.6,4.4,4.6,7.8s-2.1,5.5-5,5.5-5.5-2.6-5.6-7.1h2.2Z"/>
      <path class="st0" d="M736.9,125.9c.6,0,1.2-.1,1.8-.4v2.2c-.7.3-1.5.5-2.2.5-2.9,0-3.8-1.7-3.8-5.5v-16h-2.7v-2.1h2.7v-7.5h2.3v7.5h3.7v2.1h-3.7v16.2c0,2.2.4,3.1,1.9,3.1Z"/>
      <path class="st0" d="M742.8,114.3c.2-5.4,1.2-8.1,3.3-8.1s3,2.7,3.2,8.1h-6.5ZM751.5,120.6h-2.2c0,3.6-1.1,5.5-3,5.5s-3.4-3-3.4-9.4v-.4h8.7v-.7c0-7.7-1.9-11.7-5.5-11.7s-5.5,4-5.5,12.2,1.7,12.2,5.5,12.2,5.4-2.7,5.5-7.7Z"/>
      <path class="st0" d="M755.3,104.5h2v3.5c.8-2.5,2.4-3.8,4.4-3.8s.6,0,.9,0v2.5c-.2,0-.4,0-.6,0-2.9,0-4.5,2.1-4.5,6.1v15h-2.2v-23.3Z"/>
      <path class="st0" d="M765.2,104.5h2.1v3.5c.8-2.5,2.4-3.8,4.4-3.8s.6,0,.8,0v2.5c-.2,0-.4,0-.6,0-3,0-4.5,2.1-4.5,6.1v15h-2.2v-23.3Z"/>
      <path class="st0" d="M776.3,114.3c.2-5.4,1.2-8.1,3.3-8.1s3,2.7,3.2,8.1h-6.5ZM785,120.6h-2.2c0,3.6-1.1,5.5-3,5.5s-3.5-3-3.5-9.4v-.4h8.8v-.7c0-7.7-1.9-11.7-5.5-11.7s-5.5,4-5.5,12.2,1.7,12.2,5.5,12.2,5.4-2.7,5.5-7.7Z"/>
      <path class="st0" d="M788.8,104.5h2.3v23.3h-2.3v-23.3ZM788.5,96h2.7v3h-2.7v-3Z"/>
      <path class="st0" d="M806.2,121.1c0,4.7-2,7.3-5.4,7.3s-5.5-4-5.5-12.2,1.7-12.2,5.5-12.2,5.1,2.6,5.4,7.2h-2.1c-.2-3.4-1.2-5-3.1-5s-3.2,3.3-3.2,10,.7,10,3.4,10,3-1.8,3-5.3h2.1v.3Z"/>
      <path class="st0" d="M809.9,95.4h2.2v11.5c1.3-1.8,2.7-2.7,4.1-2.7,2.5,0,3.4,2.2,3.4,6.8v16.8h-2.2v-17.1c0-2.8-.4-4.2-1.7-4.2s-2.4,1-3.6,3.1v18.2h-2.2v-32.5Z"/>
      <path class="st0" d="M825.8,121.1c.2,3.2,1.4,4.9,3.4,4.9s2.7-1.4,2.7-3.5-1.7-4-4.2-6.2c-2.3-2.2-3.9-3.8-3.9-6.9s1.9-5.4,4.8-5.4,5.1,2.5,5.3,6.9h-2.2c-.2-3.1-1.3-4.8-3.1-4.8s-2.7,1.3-2.7,3.2,1.5,3.4,3.6,5.3c2.8,2.6,4.6,4.4,4.6,7.8s-2.1,5.5-5,5.5-5.5-2.6-5.6-7.1h2.2Z"/>
    </g>
  </g>
  <g>
    <path class="st0" d="M17.3,126.5c-5.9,0-9.1-3.5-9.1-9.4h5.2c0,3.2.8,5.2,3.9,5.2s3.9-2.6,3.9-7.8v-5.2c-.9,1.6-2.6,2.6-5.2,2.6-6,0-7.8-4.4-7.8-10.4s2.5-12,9.1-12,9.1,5.5,9.1,12v11.7c0,7.1-2,13.3-9.1,13.3ZM17.3,93.7c-3.1,0-3.9,3.3-3.9,6.5s0,7.8,3.9,7.8,3.2-1.3,3.9-2.6v-5.2c0-3.2-.8-6.5-3.9-6.5Z"/>
    <path class="st0" d="M38.5,126.5c-6.1,0-9.1-4.5-9.1-10.7v-15.6c0-6.4,2.8-10.7,9.1-10.7s9.1,4.3,9.1,10.7v15.6c0,6.3-3,10.7-9.1,10.7ZM38.5,122.2c3.2,0,3.9-3.3,3.9-6.5v-15.6c0-3.3-.6-6.5-3.9-6.5s-3.9,3.2-3.9,6.5v15.6c0,3.1.8,6.5,3.9,6.5Z"/>
    <path class="st0" d="M60.1,117v-27.2h5.2v27.2c0,6.3-1.5,9.1-7.8,9.1h-2.6v-3.9c4.3,0,5.2-.8,5.2-5.2Z"/>
    <path class="st0" d="M83.4,108v11.7c0,2.7.2,4.6.7,6.5h-5.2l-.7-3.9c-1,2-2.2,4.3-5.2,4.3s-5.2-3.1-5.2-6.1c0-6.8,5.4-8.6,10.4-10.6v-1.9c0-2.3-.4-4.1-2.6-4.1s-2.6,1.9-2.6,4.1h-5.2c0-4.9,2.9-8.2,7.8-8.2s7.8,3.3,7.8,8.2ZM73,119c0,1.9.7,3.2,2.6,3.2s2-1.2,2.6-1.9v-7.2c-2,1.4-5.2,2.7-5.2,5.9Z"/>
    <path class="st0" d="M98.8,99.8c2.3,0,3.7,1.9,3.7,4.2v22.1h-5.2v-19.5c0-1.6-.2-2.6-1.8-2.6s-2.6.8-3.4,1.5v20.5h-5.2v-36.3h5.2v13.2c1.8-1.7,3.5-3.2,6.7-3.2Z"/>
    <path class="st0" d="M117.1,99.8c.3,0,.4,0,.8,0v5.7c-.8-.3-1.9-.6-2.9-.6-2.1,0-3.6,1.4-3.6,3.5v17.5h-5.2v-26h5.2v3.5c.9-1.8,3-3.8,5.7-3.8Z"/>
    <path class="st0" d="M126.4,122.2c2.6,0,2.6-2.6,2.6-5.2h5.2c0,6-2.1,9.4-7.8,9.4s-7.8-6.6-7.8-14,1-12.7,7.8-12.7,7.8,5.7,7.8,12.7v.6h-10.4v1.3c0,3-.3,7.8,2.6,7.8ZM126.4,104.1c-2.7,0-2.6,3.8-2.6,6.5h5.2c0-2.7,0-6.5-2.6-6.5Z"/>
  </g>
  <path class="st0" d="M8.7,59.4c0-1.8.7-3.5,2-4.9,1.4-1.4,2.9-2.1,4.7-2.1s3.2.6,4.5,1.9c1.2,1.3,1.8,2.9,1.8,4.9s-.6,3.7-1.9,5c-1.3,1.3-2.8,2-4.6,2s-3.3-.7-4.6-2c-1.3-1.4-2-3-2-4.8ZM27.8,22.3c-.9-3-.4-5.5,1.6-7.5,1.3-1.4,2.9-2,4.7-2s3.2.6,4.5,1.9c1.2,1.3,1.8,2.9,1.8,4.9s-.6,3.6-1.9,5c-1.3,1.3-2.8,2-4.7,2s-4.4-1.3-5.9-4,0-.1,0-.2ZM27.4,39.4c0-1.8.7-3.5,2-4.8,1.3-1.4,2.9-2,4.7-2s3.2.7,4.5,2c1.2,1.3,1.8,2.9,1.8,4.9,0,2.8-1.3,4.9-3.8,6.4-3,1-5.4.5-7.3-1.6-1.3-1.4-1.9-3-1.9-4.9ZM27.8,62.1c-.9-3-.4-5.5,1.6-7.5,1.3-1.4,2.9-2.1,4.7-2.1s3.2.6,4.5,1.9c1.2,1.3,1.8,2.9,1.8,4.9,0,2.8-1.3,5-3.9,6.5s0,0,0,0c-3.7,1.2-6.6,0-8.6-3.6s0-.1,0-.2Z"/>
  <path class="st0" d="M100.4,42.3c-1-3.1-.4-5.6,1.6-7.6,1.4-1.4,2.9-2,4.7-2s3.2.7,4.5,2c1.2,1.3,1.8,2.9,1.8,4.9s-.6,3.6-1.9,4.9c-1.3,1.3-2.8,2-4.6,2s-4.4-1.3-6-3.9c0,0,0-.1,0-.2ZM119,22.3c-.9-3-.4-5.5,1.6-7.5,1.3-1.4,2.9-2,4.7-2s3.2.6,4.5,1.9c1.2,1.3,1.8,2.9,1.8,4.9s-.6,3.6-1.9,5c-1.3,1.3-2.8,2-4.7,2s-4.4-1.3-5.9-4c0,0,0-.1,0-.2ZM118.6,39.4c0-1.8.7-3.5,2-4.8,1.3-1.4,2.9-2,4.7-2s3.2.7,4.5,2c1.2,1.3,1.8,2.9,1.8,4.9,0,2.8-1.3,4.9-3.8,6.4-3,1-5.4.5-7.3-1.6-1.3-1.4-1.9-3-1.9-4.9Z"/>
  <path class="st0" d="M56.9,42.3c-1-3.1-.4-5.6,1.6-7.6,1.4-1.4,2.9-2,4.7-2s3.2.7,4.5,2c1.2,1.3,1.8,2.9,1.8,4.9s-.6,3.6-1.9,4.9c-1.3,1.3-2.8,2-4.6,2s-4.4-1.3-6-3.9,0-.1,0-.2Z"/>
  <path class="st0" d="M75.5,22.3c-.9-3-.4-5.5,1.6-7.5,1.3-1.4,2.9-2,4.7-2s3.2.6,4.5,1.9c1.2,1.3,1.8,2.9,1.8,4.9s-.6,3.6-1.9,5c-1.3,1.3-2.8,2-4.7,2s-4.4-1.3-5.9-4,0-.1,0-.2Z"/>
</svg>