<svg width="275" height="48" viewBox="0 0 275 48" fill="none" xmlns="http://www.w3.org/2000/svg">
<path d="M23.7671 18.4727L14.3939 1.05466C13.6379 -0.350902 11.5118 -0.350902 10.7537 1.05466L1.3805 18.4727C-2.86751 26.3673 3.20167 35.7196 12.5749 35.7196C21.9481 35.7196 28.0172 26.3673 23.7692 18.4727" fill="#FFFAE0"/>
<path d="M177.132 15.0832C177.692 14.0681 178.458 13.262 179.434 12.6647C180.407 12.0674 181.48 11.7687 182.652 11.7687C183.824 11.7687 184.895 12.0674 185.87 12.6626C186.843 13.2599 187.616 14.064 188.184 15.0811C188.754 16.0961 189.039 17.2009 189.039 18.3934C189.039 19.586 188.754 20.6866 188.186 21.6953C187.618 22.7041 186.846 23.5061 185.872 24.1013C184.899 24.6986 183.826 24.9973 182.654 24.9973C181.482 24.9973 180.409 24.7007 179.436 24.1034C178.462 23.5082 177.694 22.7062 177.134 21.6974C176.572 20.6908 176.292 19.5901 176.292 18.3976C176.292 17.2051 176.572 16.1003 177.134 15.0852M177.704 26.8477C179.223 27.7248 180.872 28.1655 182.654 28.1634C184.435 28.1634 186.085 27.7228 187.604 26.8435C189.122 25.9642 190.321 24.7801 191.204 23.2868C192.086 21.7956 192.528 20.1624 192.526 18.3893C192.526 16.6161 192.084 14.9829 191.2 13.4917C190.317 12.0005 189.116 10.8163 187.597 9.93709C186.079 9.05992 184.429 8.62134 182.648 8.62134C180.866 8.62134 179.216 9.06201 177.698 9.94127C176.18 10.8205 174.979 12.0047 174.097 13.498C173.216 14.9892 172.773 16.6224 172.775 18.3955C172.775 20.1687 173.218 21.8019 174.102 23.293C174.985 24.7842 176.186 25.9684 177.704 26.8477Z" fill="#FFFAE0"/>
<path d="M158.373 27.4721L158.371 19.6131L166.959 19.611L166.961 27.47L170.428 27.468L170.422 8.77588H166.957L166.959 16.4428L158.369 16.4449L158.367 8.77797L154.902 8.78006L154.908 27.4721H158.373Z" fill="#FFFAE0"/>
<path d="M258.343 27.4491L258.341 24.2809L247.844 24.283L247.842 19.5922L257.349 19.5901V16.4219L247.84 16.424V11.9504L258.337 11.9483V8.75707L244.373 8.75916L244.38 27.4533L258.343 27.4491Z" fill="#FFFAE0"/>
<path d="M199.011 15.3442L203.025 27.4596L206.59 27.4575L210.621 15.269L212.95 27.4554H216.59L212.87 8.76334H209.456L204.807 22.5976L200.149 8.76752H196.733L193.124 27.4617L196.787 27.4596L199.011 15.3442Z" fill="#FFFAE0"/>
<path d="M269.458 24.308C268.98 24.5733 268.393 24.7069 267.7 24.7069C266.775 24.7069 265.935 24.4939 265.175 24.0658C264.417 23.6397 263.796 23.0236 263.318 22.2174L260.323 24.1535C260.983 25.2499 261.927 26.1522 263.157 26.8602C264.387 27.5682 265.843 27.9232 267.526 27.9232C268.715 27.9232 269.828 27.6956 270.868 27.2445C271.908 26.7933 272.741 26.1605 273.368 25.346C273.995 24.5315 274.308 23.6 274.308 22.5537C274.308 20.507 273.167 18.9343 270.891 17.8379C270.248 17.5162 269.504 17.1528 268.663 16.7497C267.821 16.3467 267.102 16.0167 266.509 15.7598C265.304 15.2126 264.703 14.5192 264.701 13.6797C264.701 13.0844 264.96 12.5748 265.48 12.1571C266 11.7373 266.737 11.5285 267.696 11.5285C268.422 11.5285 269.078 11.7248 269.663 12.1216C270.248 12.5164 270.716 13.0113 271.062 13.6086L274.007 11.8668C273.347 10.8184 272.464 9.9851 271.357 9.36481C270.252 8.74453 268.98 8.43543 267.545 8.43543C266.374 8.43543 265.3 8.66099 264.327 9.11419C263.354 9.56531 262.579 10.1981 262 11.0126C261.424 11.8272 261.136 12.7503 261.136 13.782C261.136 14.9912 261.441 15.9707 262.052 16.7205C262.662 17.4703 263.554 18.1261 264.726 18.69C265.419 19.045 266.871 19.7217 269.082 20.72C269.544 20.9288 269.899 21.2003 270.147 21.5303C270.396 21.8603 270.519 22.2195 270.519 22.6059C270.519 22.8148 270.486 23.009 270.419 23.1865C270.254 23.671 269.932 24.0449 269.454 24.3101" fill="#FFFAE0"/>
<path d="M224.428 15.3379L228.44 27.4512H232.005L236.036 15.2607L238.367 27.4491L242.005 27.4471L238.285 8.75498L234.871 8.75707L230.222 22.5892L225.564 8.75915L222.147 8.76124L218.541 27.4533H222.204L224.428 15.3379Z" fill="#FFFAE0"/>
<path d="M123.351 20.7534H124.963C125.596 20.7534 126.183 20.6051 126.709 20.3148C127.236 20.0245 127.657 19.6298 127.962 19.1411C128.265 18.6586 128.418 18.1219 128.418 17.5476C128.418 16.9732 128.263 16.4386 127.962 15.954C127.657 15.4674 127.236 15.0727 126.709 14.7824C126.183 14.4921 125.596 14.3438 124.965 14.3438H123.351V20.7534ZM120.805 11.9441H125.016C126.091 11.9441 127.092 12.1885 127.994 12.6709C128.898 13.1554 129.621 13.8321 130.143 14.6842C130.665 15.5384 130.932 16.5012 130.932 17.5476C130.932 18.596 130.667 19.5588 130.145 20.413C129.623 21.2651 128.9 21.9397 127.996 22.42C127.096 22.8983 126.095 23.1406 125.02 23.1406H120.809L120.805 11.9441Z" fill="#FFFAE0"/>
<path d="M63.1187 27.564V24.3979L52.6198 24.3999V19.7092L62.1266 19.7071V16.5388L52.6177 16.5409L52.6156 12.0674L63.1145 12.0653L63.1124 8.87194L49.1508 8.87612L49.1549 27.5682L63.1187 27.564Z" fill="#FFFAE0"/>
<path d="M145.144 23.3348C144.142 23.3348 143.259 23.1197 142.519 22.6915C141.78 22.2655 141.203 21.7141 140.807 21.0521L140.665 20.814L142.849 19.4022L143.002 19.659C143.25 20.0767 143.561 20.3858 143.952 20.6072C144.338 20.8244 144.773 20.9351 145.247 20.9351C145.589 20.9351 145.878 20.8704 146.105 20.743C146.314 20.626 146.452 20.4694 146.523 20.2605C146.55 20.1853 146.563 20.1081 146.563 20.0245C146.563 19.8658 146.512 19.7217 146.408 19.5839C146.297 19.4356 146.13 19.3103 145.913 19.2121C144.66 18.6461 143.822 18.2556 143.426 18.053C142.73 17.7188 142.185 17.3157 141.813 16.8584C141.425 16.3822 141.229 15.7598 141.229 15.008C141.229 14.3626 141.412 13.7778 141.774 13.2682C142.129 12.767 142.611 12.3723 143.208 12.0945C143.797 11.8209 144.453 11.6831 145.157 11.6831C146.02 11.6831 146.796 11.8731 147.465 12.249C148.133 12.625 148.674 13.1346 149.073 13.7674L149.23 14.018L147.053 15.3045L146.907 15.056C146.732 14.7552 146.494 14.5025 146.199 14.3041C145.913 14.112 145.6 14.0159 145.243 14.0159C144.766 14.0159 144.403 14.1141 144.161 14.3104C143.931 14.4963 143.825 14.7009 143.825 14.9536C143.825 15.0852 143.825 15.4841 144.683 15.8747C145.019 16.0209 145.433 16.2109 145.913 16.4407C146.393 16.6704 146.817 16.8772 147.183 17.0609C148.576 17.7314 149.282 18.7192 149.284 19.9974C149.284 20.6553 149.085 21.2484 148.691 21.7601C148.306 22.2592 147.791 22.6519 147.158 22.9275C146.533 23.199 145.857 23.3369 145.144 23.3369V23.3348Z" fill="#FFFAE0"/>
<path d="M74.2921 12.1196C75.0837 12.1196 75.7603 12.3974 76.3222 12.9529C76.884 13.5084 77.1638 14.1747 77.1638 14.9474C77.1638 15.7222 76.884 16.3906 76.3222 16.9545C75.7624 17.5184 75.0858 17.8003 74.2921 17.8024H69.3904V12.1217H74.2921V12.1196ZM69.3967 27.5724V21.0918H72.2663C72.778 22.9129 73.7157 24.5086 75.0774 25.8786C76.4391 27.2487 78.6842 27.5912 81.1424 27.5912V24.7884C79.7389 24.7884 78.4921 24.5566 77.5773 23.7504C76.6605 22.9443 76.0632 21.9606 75.7812 20.8015C76.673 20.5759 77.4917 20.177 78.2436 19.6027C78.9954 19.0304 79.5927 18.337 80.0376 17.5225C80.4824 16.708 80.7059 15.8496 80.7059 14.9474C80.7059 13.8509 80.4281 12.8359 79.8768 11.9003C79.3233 10.9646 78.5673 10.2274 77.6108 9.68857C76.6542 9.14974 75.6058 8.87823 74.4676 8.88032H65.9277L65.934 27.5745H69.3988L69.3967 27.5724Z" fill="#FFFAE0"/>
<path d="M37.6097 12.1342L37.6139 27.587L41.0808 27.5849L41.0745 12.1342L46.4399 12.1321V8.89076L32.2694 8.89494V12.1363L37.6097 12.1342Z" fill="#FFFAE0"/>
<path d="M131.962 11.9441L139.921 11.942V14.3313H134.506V16.3007H139.359V18.6733L134.506 18.6754L134.508 20.768L139.923 20.7659V23.1406L131.966 23.1427L131.962 11.9441Z" fill="#FFFAE0"/>
<path d="M91.988 12.1154C92.7795 12.1112 93.4583 12.3869 94.0201 12.9424C94.584 13.4959 94.8659 14.16 94.8701 14.9349C94.8743 15.7097 94.5944 16.378 94.0368 16.944C93.4792 17.5121 92.8025 17.7961 92.011 17.7982L87.1093 17.817L87.0863 12.1342L91.988 12.1154ZM87.1468 27.587L87.1218 21.1064L89.9935 21.0959C90.5114 22.9171 91.4554 24.5085 92.8213 25.8723C94.1872 27.2382 96.4344 27.5724 98.8926 27.5619L98.8821 24.7592C97.4787 24.7654 96.2318 24.5378 95.3129 23.7358C94.3939 22.9338 93.7925 21.9522 93.5063 20.7931C94.396 20.5634 95.2147 20.1624 95.9645 19.586C96.7122 19.0116 97.3095 18.3161 97.7502 17.4995C98.1908 16.6829 98.4122 15.8246 98.408 14.9223C98.4039 13.8259 98.124 12.8109 97.5664 11.8794C97.0087 10.9458 96.2527 10.2128 95.292 9.67602C94.3334 9.13928 93.285 8.87404 92.1446 8.87821L83.6048 8.91163L83.6778 27.6037L87.1427 27.5891L87.1468 27.587Z" fill="#FFFAE0"/>
<path d="M115.302 27.564V24.3979L104.803 24.3999L104.801 19.7092L114.31 19.7071L114.308 16.5388L104.801 16.5409L104.799 12.0674L115.298 12.0653L115.296 8.87194L101.332 8.87612L101.338 27.5682L115.302 27.564Z" fill="#FFFAE0"/>
<path d="M32.1086 42.1752H33.8525C33.9256 42.8289 34.4477 43.1776 35.3061 43.1776C36.1645 43.1776 36.672 42.7996 36.672 42.2629C36.672 40.6359 32.284 42.1752 32.284 38.9798C32.284 37.687 33.4035 36.6406 35.2915 36.6406C36.9477 36.6406 38.182 37.4823 38.2989 39.009H36.6281C36.5404 38.4576 36.106 38.0942 35.2769 38.0942C34.5062 38.0942 34.0133 38.4284 34.0133 38.9213C34.0133 40.3749 38.5015 38.8482 38.5015 42.1605C38.5015 43.612 37.3257 44.6584 35.2769 44.6584C33.228 44.6584 32.1838 43.6851 32.1107 42.1752" fill="#FFFAE0"/>
<path d="M40.7216 41.9287V38.3407H39.4288V36.8453H40.2851C40.6192 36.8453 40.8365 36.6281 40.8365 36.2647V34.7255H42.6096V36.8307H44.7148V38.3407H42.6096V41.8556C42.6096 42.4947 42.9291 42.902 43.6559 42.902H44.673V44.4704H43.2633C41.6802 44.4704 40.7216 43.5703 40.7216 41.9287Z" fill="#FFFAE0"/>
<path d="M51.8491 40.6652C51.8491 39.2262 50.9782 38.3553 49.7857 38.3553C48.5931 38.3553 47.7515 39.3139 47.7515 40.6652C47.7515 42.0164 48.5785 42.9604 49.8003 42.9604C51.0221 42.9604 51.8491 41.9433 51.8491 40.6652ZM45.8363 40.6944C45.8363 38.2968 47.2878 36.6427 49.3805 36.6427C50.7025 36.6427 51.4439 37.428 51.705 37.8186H51.8073V36.8307H53.6953V44.4704H51.8366V43.4972H51.7342C51.517 43.8167 50.8341 44.6605 49.439 44.6605C47.3045 44.6605 45.8363 43.0628 45.8363 40.6944Z" fill="#FFFAE0"/>
<path d="M55.6272 36.8307H57.4129V38.0796H57.5298C57.7763 37.4844 58.4738 36.8015 59.5348 36.8015H60.2323V38.6017H59.4471C58.242 38.6017 57.5152 39.4873 57.5152 40.8531V44.4704H55.6272V36.8286V36.8307Z" fill="#FFFAE0"/>
<path d="M66.7673 44.4704L64.85 41.085L63.7473 42.3068V44.4704H61.8572V33.5768H63.7473V39.763H63.8329L66.3621 36.8286H68.6991L66.1428 39.6627L68.8892 44.4704H66.7673Z" fill="#FFFAE0"/>
<path d="M75.0189 39.8653C74.9312 38.8336 74.1334 38.1506 73.0286 38.1506C71.9238 38.1506 71.1552 38.9067 71.0383 39.8653H75.0189ZM69.1795 40.6944C69.1795 38.2822 70.7918 36.6427 73.0286 36.6427C75.4847 36.6427 76.8192 38.4576 76.8192 40.6088V41.204H71.009C71.0675 42.3673 71.8653 43.1505 73.0871 43.1505C74.0164 43.1505 74.7286 42.714 74.9897 42.0895H76.7482C76.3702 43.6434 75.0043 44.6605 73.0286 44.6605C70.7772 44.6605 69.1795 42.9751 69.1795 40.6944Z" fill="#FFFAE0"/>
<path d="M88.1368 44.4704L85.4928 39.953L84.3462 41.2896V44.4704H82.4122V34.3015H84.3462V38.5871H84.4318L87.905 34.3015H90.3005L86.8148 38.3992L90.3882 44.4704H88.1368Z" fill="#FFFAE0"/>
<path d="M91.7541 36.8286H93.6421V44.4683H91.7541V36.8286ZM91.5369 34.7088C91.5369 34.0551 92.0152 33.6186 92.6981 33.6186C93.381 33.6186 93.8593 34.0551 93.8593 34.7088C93.8593 35.3625 93.3789 35.8136 92.6981 35.8136C92.0172 35.8136 91.5369 35.3917 91.5369 34.7088Z" fill="#FFFAE0"/>
<path d="M95.5739 36.8307H97.3742V37.7601H97.4766C97.7815 37.1941 98.5375 36.6406 99.6256 36.6406C101.34 36.6406 102.387 37.8457 102.387 39.4726V44.4704H100.499V39.9676C100.499 39.0382 99.9034 38.4138 99.0325 38.4138C98.1177 38.4138 97.464 39.1406 97.464 40.0992V44.4704H95.576V36.8286L95.5739 36.8307Z" fill="#FFFAE0"/>
<path d="M109.853 40.6652C109.853 39.2262 108.982 38.3553 107.79 38.3553C106.597 38.3553 105.755 39.3139 105.755 40.6652C105.755 42.0165 106.582 42.9604 107.804 42.9604C109.026 42.9604 109.853 41.9434 109.853 40.6652ZM103.84 40.6944C103.84 38.2968 105.292 36.6427 107.384 36.6427C108.706 36.6427 109.448 37.428 109.709 37.8186H109.811V33.5768H111.699V44.4725H109.84V43.4993H109.738C109.521 43.8188 108.838 44.6626 107.443 44.6626C105.308 44.6626 103.84 43.0649 103.84 40.6965" fill="#FFFAE0"/>
<path d="M118.99 39.8653C118.902 38.8336 118.105 38.1506 117 38.1506C115.895 38.1506 115.126 38.9067 115.01 39.8653H118.99ZM113.151 40.6944C113.151 38.2822 114.763 36.6427 117 36.6427C119.456 36.6427 120.79 38.4576 120.79 40.6088V41.204H114.98C115.039 42.3673 115.837 43.1505 117.058 43.1505C117.988 43.1505 118.7 42.714 118.961 42.0895H120.719C120.341 43.6434 118.976 44.6605 117 44.6605C114.748 44.6605 113.151 42.9751 113.151 40.6944Z" fill="#FFFAE0"/>
<path d="M122.463 36.8307H124.249V38.0796H124.366C124.612 37.4844 125.31 36.8015 126.371 36.8015H127.069V38.6017H126.283C125.078 38.6017 124.351 39.4873 124.351 40.8531V44.4704H122.463V36.8286V36.8307Z" fill="#FFFAE0"/>
<path d="M139.836 39.2554H131.991V40.8385H139.836V39.2554Z" fill="#FFFAE0"/>
<path d="M150.817 40.6213C150.817 39.197 149.946 38.3553 148.753 38.3553C147.561 38.3553 146.719 39.2701 146.719 40.6213C146.719 41.9726 147.546 42.8873 148.768 42.8873C149.99 42.8873 150.817 41.9141 150.817 40.6213ZM145.241 45.3267H146.984C147.131 46.0096 147.741 46.4461 148.77 46.4461C150.136 46.4461 150.804 45.7193 150.804 44.4119V43.4241H150.687C150.47 43.7729 149.758 44.5853 148.392 44.5853C146.329 44.5853 144.804 43.0461 144.804 40.6192C144.804 38.1924 146.299 36.6385 148.334 36.6385C149.685 36.6385 150.441 37.4364 150.673 37.8144H150.79V36.8265H152.663V44.4099C152.663 46.4879 151.356 47.9979 148.77 47.9979C146.563 47.9979 145.372 46.749 145.241 45.3246" fill="#FFFAE0"/>
<path d="M160.027 39.8653C159.939 38.8336 159.142 38.1506 158.037 38.1506C156.932 38.1506 156.163 38.9067 156.046 39.8653H160.027ZM154.188 40.6944C154.188 38.2822 155.8 36.6427 158.037 36.6427C160.491 36.6427 161.827 38.4576 161.827 40.6088V41.204H156.017C156.076 42.3673 156.874 43.1505 158.095 43.1505C159.025 43.1505 159.737 42.714 159.998 42.0895H161.756C161.378 43.6434 160.013 44.6605 158.037 44.6605C155.785 44.6605 154.188 42.9751 154.188 40.6944Z" fill="#FFFAE0"/>
<path d="M163.5 36.8307H165.286V38.0796H165.403C165.649 37.4844 166.347 36.8015 167.408 36.8015H168.105V38.6017H167.32C166.115 38.6017 165.388 39.4873 165.388 40.8531V44.4704H163.5V36.8286V36.8307Z" fill="#FFFAE0"/>
<path d="M174.83 39.8653C174.743 38.8336 173.945 38.1506 172.84 38.1506C171.735 38.1506 170.967 38.9067 170.85 39.8653H174.83ZM168.991 40.6944C168.991 38.2822 170.603 36.6427 172.84 36.6427C175.294 36.6427 176.631 38.4576 176.631 40.6088V41.204H170.821C170.879 42.3673 171.677 43.1505 172.899 43.1505C173.828 43.1505 174.54 42.714 174.801 42.0895H176.56C176.182 43.6434 174.816 44.6605 172.84 44.6605C170.589 44.6605 168.991 42.9751 168.991 40.6944Z" fill="#FFFAE0"/>
<path d="M177.823 40.6506C177.823 38.3992 179.421 36.6406 181.819 36.6406C183.78 36.6406 185.304 37.8457 185.595 39.6481H183.663C183.431 38.892 182.719 38.3553 181.833 38.3553C180.555 38.3553 179.741 39.3724 179.741 40.6506C179.741 41.9287 180.597 42.9458 181.848 42.9458C182.719 42.9458 183.431 42.4529 183.648 41.7115H185.58C185.29 43.4847 183.78 44.6605 181.819 44.6605C179.421 44.6605 177.823 42.902 177.823 40.6506Z" fill="#FFFAE0"/>
<path d="M187.265 33.5768H189.139V37.7601H189.256C189.561 37.1941 190.302 36.6427 191.376 36.6427C193.09 36.6427 194.134 37.8478 194.134 39.4747V44.4725H192.246V39.9697C192.246 39.0403 191.622 38.4159 190.751 38.4159C189.88 38.4159 189.153 39.1134 189.153 40.0574V44.4725H187.265V33.5768Z" fill="#FFFAE0"/>
<path d="M196.837 41.9287V38.3407H195.544V36.8453H196.4C196.735 36.8453 196.952 36.6281 196.952 36.2647V34.7255H198.725V36.8307H200.83V38.3407H198.725V41.8556C198.725 42.4947 199.045 42.902 199.771 42.902H200.788V44.4704H199.379C197.796 44.4704 196.837 43.5703 196.837 41.9287Z" fill="#FFFAE0"/>
<path d="M207.791 39.8653C207.703 38.8336 206.906 38.1506 205.801 38.1506C204.696 38.1506 203.927 38.9067 203.81 39.8653H207.791ZM201.952 40.6944C201.952 38.2822 203.564 36.6427 205.801 36.6427C208.255 36.6427 209.591 38.4576 209.591 40.6088V41.204H203.781C203.84 42.3673 204.638 43.1505 205.859 43.1505C206.789 43.1505 207.501 42.714 207.762 42.0895H209.52C209.142 43.6434 207.777 44.6605 205.801 44.6605C203.549 44.6605 201.952 42.9751 201.952 40.6944Z" fill="#FFFAE0"/>
<path d="M214.255 34.3015H216.36L218.031 41.6092H218.148L219.919 34.3015H222.302L224.073 41.6092H224.175L225.861 34.3015H227.954L225.324 44.4704H223L221.153 37.0333H221.053L219.207 44.4704H216.884L214.255 34.3015Z" fill="#FFFAE0"/>
<path d="M234.039 39.8653C233.952 38.8336 233.154 38.1506 232.049 38.1506C230.944 38.1506 230.176 38.9067 230.059 39.8653H234.039ZM228.2 40.6944C228.2 38.2822 229.812 36.6427 232.049 36.6427C234.503 36.6427 235.84 38.4576 235.84 40.6088V41.204H230.029C230.088 42.3673 230.886 43.1505 232.108 43.1505C233.037 43.1505 233.749 42.714 234.01 42.0895H235.769C235.391 43.6434 234.025 44.6605 232.049 44.6605C229.798 44.6605 228.2 42.9751 228.2 40.6944Z" fill="#FFFAE0"/>
<path d="M237.279 42.3214V33.5768H239.167V42.148C239.167 42.5845 239.384 42.8163 239.777 42.8163H240.081V44.4725H239.369C238.033 44.4725 237.277 43.6747 237.277 42.3235" fill="#FFFAE0"/>
<path d="M242.174 41.9287V38.3407H240.881V36.8453H241.738C242.072 36.8453 242.289 36.6281 242.289 36.2647V34.7255H244.062V36.8307H246.167V38.3407H244.062V41.8556C244.062 42.4947 244.382 42.902 245.108 42.902H246.126V44.4704H244.716C243.133 44.4704 242.174 43.5703 242.174 41.9287Z" fill="#FFFAE0"/>
</svg>
